<?xml version="1.0" encoding="UTF-8"?>
<svg version="1.1" xmlns="http://www.w3.org/2000/svg" width="233" height="235">
<path d="M0 0 C1.08151278 -0.00679667 1.08151278 -0.00679667 2.1848743 -0.01373065 C4.58358214 -0.02631831 6.98206128 -0.02475795 9.38079834 -0.02310181 C11.10780629 -0.02909063 12.83481157 -0.03589699 14.56181335 -0.04345703 C19.24175462 -0.06108938 23.9216227 -0.06581128 28.60159397 -0.0670886 C31.52929248 -0.06851247 34.45697253 -0.07278655 37.38466644 -0.07808304 C47.60946326 -0.09657503 57.83420801 -0.1047548 68.059021 -0.10317993 C77.57196256 -0.10197915 87.08467701 -0.12307117 96.59756112 -0.15466726 C104.77955825 -0.18086908 112.96148138 -0.19154557 121.14352012 -0.19026911 C126.02372208 -0.18976058 130.90372217 -0.19538355 135.78388214 -0.21662521 C140.37719699 -0.23607321 144.97011876 -0.23608745 149.56344795 -0.22159195 C151.24234915 -0.21951079 152.92127537 -0.22416316 154.6001339 -0.23631287 C167.06991081 -0.32065819 177.56252246 0.95377803 187.50091553 9.19711304 C193.86175918 15.74322398 196.66025484 22.67712129 196.66653442 31.66014099 C196.6731078 32.79883885 196.6731078 32.79883885 196.67981398 33.96054071 C196.69320123 36.51213828 196.69938074 39.06370131 196.70550537 41.61532593 C196.71340656 43.44188595 196.72167552 45.26844441 196.73028564 47.09500122 C196.75650947 53.10167957 196.77181622 59.1083649 196.78607178 65.11508179 C196.7914318 67.18362368 196.79680931 69.25216552 196.80220413 71.32070732 C196.82383568 79.92747042 196.84257099 88.53423164 196.85382652 97.14101505 C196.87005558 109.46955994 196.903205 121.79778915 196.96022737 134.12621504 C196.99896314 142.79727304 197.01846368 151.46824674 197.02374709 160.13938898 C197.02739628 165.31646387 197.03937132 170.4932021 197.07184982 175.67018318 C197.10199338 180.54499705 197.10821983 185.41927167 197.09646606 190.29415894 C197.09624584 192.0783076 197.10450851 193.86248174 197.1221199 195.6465435 C197.21068723 205.1393615 197.11387677 213.1577843 191.51263428 221.26742554 C190.79075928 222.33992554 190.06888428 223.41242554 189.32513428 224.51742554 C182.58140193 231.11129716 175.55556809 234.41471047 166.19584656 234.42132568 C165.44488175 234.42570794 164.69391695 234.43009019 163.92019564 234.43460524 C161.39623711 234.44799168 158.8723135 234.45417182 156.34832764 234.46029663 C154.54147178 234.46819789 152.73461751 234.47646685 150.92776489 234.4850769 C144.98601794 234.51130008 139.04426394 234.52660748 133.10247803 234.54086304 C131.05622414 234.54622309 129.0099703 234.5516006 126.96371651 234.55699539 C118.44959976 234.57862689 109.9354849 234.59736216 101.42134762 234.60861778 C89.2259274 234.62484647 77.03082632 234.65799504 64.83552641 234.71501863 C56.2578859 234.75375604 47.6803306 234.77325514 39.10260493 234.77853835 C33.9814198 234.78218733 28.86057506 234.79416013 23.73948479 234.82664108 C18.91719888 234.85678753 14.09545811 234.86301008 9.27309799 234.85125732 C7.50829979 234.85103712 5.74347581 234.85929784 3.97876549 234.87691116 C-5.4853971 234.9661882 -13.38233013 234.80558175 -21.48736572 229.26742554 C-22.39486572 228.68992554 -23.30236572 228.11242554 -24.23736572 227.51742554 C-31.72220491 220.03258635 -35.85168926 211.09908781 -35.8817749 200.51467896 C-35.88786601 199.77718737 -35.89395711 199.03969578 -35.90023279 198.27985597 C-35.91675983 195.83121586 -35.91210191 193.38310166 -35.9072876 190.93441772 C-35.91463405 189.16947393 -35.92322195 187.40453492 -35.93295288 185.63960266 C-35.95511994 180.8604547 -35.95810187 176.08147941 -35.95620537 171.3022871 C-35.95608541 167.30410818 -35.96465991 163.30596551 -35.97298288 159.30779672 C-35.99220066 149.86902195 -35.99510712 140.4303356 -35.98834229 130.99154663 C-35.98170659 121.27575726 -36.00455068 111.56034802 -36.04165602 101.84463573 C-36.07241581 93.48509822 -36.08370613 85.12568259 -36.0798192 76.76608968 C-36.07775774 71.78131863 -36.0831371 66.79684329 -36.10771179 61.81212616 C-36.1300796 57.12022432 -36.1280182 52.42893734 -36.10778427 47.73703194 C-36.10439161 46.02307463 -36.10938744 44.30907512 -36.12376785 42.59517479 C-36.2180575 30.51608841 -35.02290297 19.00640037 -26.28424072 9.79476929 C-18.46662989 3.14980008 -10.2688687 0.0267945 0 0 Z " fill="#0D3D79" transform="translate(35.48736572265625,-0.267425537109375)"/>
<path d="M0 0 C1.0686533 -0.00384491 1.0686533 -0.00384491 2.15889555 -0.0077675 C4.52816835 -0.01267928 6.89679314 0.0037436 9.26600647 0.02018738 C10.97145065 0.02103422 12.67689593 0.0205574 14.38233948 0.01885986 C18.99964271 0.0180007 23.61671115 0.03561364 28.23395991 0.05658174 C33.06393026 0.07536174 37.89390625 0.07710002 42.72390747 0.08065796 C51.8645873 0.08997453 61.00515923 0.11458309 70.14579159 0.14470643 C80.55444683 0.17826249 90.96310728 0.19473949 101.37180316 0.20979273 C122.77808541 0.24113296 144.18427058 0.29388595 165.59046936 0.36076355 C165.59046936 1.02076355 165.59046936 1.68076355 165.59046936 2.36076355 C166.79703186 2.39170105 166.79703186 2.39170105 168.02796936 2.42326355 C174.3052996 4.07519256 178.88428659 8.29538441 182.96546936 13.23576355 C187.93997413 22.80211888 188.04284167 31.59412381 188.04212952 42.08879089 C188.05275701 43.77669033 188.06458974 45.46458253 188.07752991 47.15246582 C188.10817873 51.71659694 188.11943695 56.28057127 188.12517214 60.84479475 C188.12953867 63.70115511 188.13792246 66.55747542 188.14767075 69.41382217 C188.18136815 79.39225071 188.19854671 89.37056143 188.2013092 99.3490448 C188.20434433 108.62932441 188.24480682 117.90893807 188.30245745 127.18902433 C188.35031445 135.17574916 188.37104135 143.16225462 188.37109983 151.14912188 C188.37163647 155.91099017 188.38309127 160.67220501 188.42227554 165.43392563 C188.45827472 169.91425424 188.46034223 174.39336914 188.43710327 178.87376976 C188.43425592 180.51076475 188.44319652 182.14783285 188.46528244 183.78468132 C188.59217147 193.81676207 187.67786657 201.58301137 180.59046936 209.36076355 C177.71958279 211.67467117 174.80793773 213.57120265 171.59046936 215.36076355 C170.60046936 216.02076355 169.61046936 216.68076355 168.59046936 217.36076355 C163.10094441 218.46143753 157.72251324 218.48160688 152.15296936 218.42326355 C151.32603577 218.41875183 150.49910217 218.41424011 149.64710999 218.40959167 C147.6281979 218.39792166 145.60932362 218.37999073 143.59046936 218.36076355 C144.18543227 215.20746014 144.48344966 214.45933433 146.96546936 212.17326355 C152.9182181 205.79531847 153.02305702 197.76399648 152.93104553 189.42497253 C152.93148361 188.37027267 152.93192169 187.31557281 152.93237305 186.22891235 C152.93029678 182.77136692 152.90702032 179.31431716 152.88343811 175.8568573 C152.87783803 173.44833643 152.87356988 171.03981214 152.87057495 168.63128662 C152.85915868 162.31345571 152.82971905 155.99583399 152.79646301 149.67808533 C152.76569276 143.2227308 152.75205476 136.76734226 152.73695374 130.31193542 C152.70484638 117.66145592 152.65427127 105.0111209 152.59046936 92.36076355 C151.27046936 92.03076355 149.95046936 91.70076355 148.59046936 91.36076355 C141.15318336 99.41604753 134.47708574 108.0219423 127.78968811 116.69670105 C123.42866074 122.34547596 118.93791333 127.88349501 114.4278717 133.41349792 C111.3689678 137.1650005 108.3372361 140.93425383 105.34046936 144.73576355 C101.93218166 149.0159388 98.31169998 153.07199626 94.61781311 157.1068573 C92.98729636 158.91958979 91.46344085 160.75291321 89.96546936 162.67326355 C87.14923415 165.86005602 84.15358806 168.08002332 80.59046936 170.36076355 C79.95109436 170.79388855 79.31171936 171.22701355 78.65296936 171.67326355 C72.63959852 173.6777205 67.44828005 172.43828629 61.94203186 169.75138855 C53.55172655 164.78967976 45.7610529 157.6553419 38.96156311 150.6927948 C36.77866848 148.5720909 35.436381 148.33893747 32.36390686 147.9037323 C27.15932376 148.53410106 25.48273003 150.79314157 22.21546936 154.67326355 C21.65021545 155.31408875 21.08496155 155.95491394 20.50257874 156.61515808 C18.84176431 158.51167968 17.21154985 160.43024163 15.59046936 162.36076355 C14.80414124 163.29017761 14.01781311 164.21959167 13.20765686 165.1771698 C10.97036734 167.88090529 8.77834465 170.61689355 6.59046936 173.36076355 C4.47053452 175.98987769 2.34361386 178.61329237 0.21546936 181.23576355 C-0.33487976 181.91469666 -0.88522888 182.59362976 -1.45225525 183.2931366 C-5.50931115 188.28574947 -9.63004648 193.21997278 -13.80747986 198.11222839 C-15.79811941 200.44478051 -17.73291022 202.78480153 -19.59312439 205.2240448 C-20.19253845 205.92916199 -20.79195251 206.63427917 -21.40953064 207.36076355 C-22.06953064 207.36076355 -22.72953064 207.36076355 -23.40953064 207.36076355 C-24.06953064 205.38076355 -24.72953064 203.40076355 -25.40953064 201.36076355 C-26.06953064 201.36076355 -26.72953064 201.36076355 -27.40953064 201.36076355 C-27.06998687 197.39941956 -25.93900142 195.58406849 -23.05015564 192.9193573 C-16.67821887 186.86601737 -11.17649299 179.899092 -5.65953064 173.07951355 C-3.47451495 170.43928626 -1.21781673 167.89346635 1.09046936 165.36076355 C4.92356609 161.15031533 8.53463715 156.80006258 12.11781311 152.37638855 C15.02334509 148.83283296 17.98501097 145.34134115 20.96546936 141.86076355 C21.47763 141.26102722 21.98979065 140.66129089 22.51747131 140.04338074 C27.62408245 134.09541157 27.62408245 134.09541157 29.59046936 132.36076355 C34.00409272 132.48457807 36.43497148 134.51228849 39.71546936 137.29826355 C40.67582092 138.11037292 41.63617249 138.9224823 42.62562561 139.75920105 C46.42573342 143.09368301 50.15186628 146.50402973 53.87562561 149.92326355 C63.60117885 159.07682722 63.60117885 159.07682722 76.13343811 161.87638855 C85.11130744 159.99232058 91.12097831 149.0749508 96.28578186 142.10050964 C98.45661418 139.20579574 100.71552416 136.38160233 102.96546936 133.54826355 C106.96796432 128.48540611 110.8628201 123.35087214 114.71546936 118.17326355 C118.03654543 113.71004076 121.39614633 109.31823148 124.96546936 105.04826355 C129.05358653 100.13509 132.82197543 95.01951741 136.59046936 89.86076355 C144.88542528 78.55369137 144.88542528 78.55369137 148.65296936 73.73576355 C149.6294342 72.47892761 149.6294342 72.47892761 150.62562561 71.19670105 C152.93225034 69.04140558 154.49002196 68.67242031 157.59046936 68.36076355 C157.92046936 69.02076355 158.25046936 69.68076355 158.59046936 70.36076355 C163.44001682 70.79109907 163.44001682 70.79109907 167.78675842 68.94377136 C170.50789578 65.04696123 170.19348223 61.43293813 170.19984436 56.78263855 C170.21638062 55.85606445 170.23291687 54.92949036 170.24995422 53.97483826 C170.29847662 51.02007955 170.3198146 48.06583566 170.34046936 45.11076355 C170.36862549 43.10552926 170.39855241 41.10031899 170.43031311 39.09513855 C170.50423681 34.18372259 170.5537856 29.27259314 170.59046936 24.36076355 C169.60046936 24.03076355 168.61046936 23.70076355 167.59046936 23.36076355 C167.59046936 22.70076355 167.59046936 22.04076355 167.59046936 21.36076355 C160.82469298 21.08904562 155.31136148 21.95148916 148.84046936 23.86076355 C138.97428305 26.71717117 138.97428305 26.71717117 134.59046936 26.36076355 C134.59046936 27.02076355 134.59046936 27.68076355 134.59046936 28.36076355 C132.98171936 28.48451355 132.98171936 28.48451355 131.34046936 28.61076355 C127.25880267 29.42709689 125.89871749 29.94455632 123.59046936 33.36076355 C122.83986087 36.27459084 122.83986087 36.27459084 123.59046936 39.36076355 C124.74165862 40.97613483 124.74165862 40.97613483 126.15296936 42.48576355 C128.59046936 45.36076355 128.59046936 45.36076355 128.55140686 47.1381073 C127.1262193 50.43457772 124.90793021 53.04101645 122.65296936 55.79826355 C121.64584807 57.05428439 120.63935104 58.31080601 119.63343811 59.5677948 C118.86846008 60.51839783 118.86846008 60.51839783 118.08802795 61.48820496 C115.84465262 64.29333845 113.65124889 67.13564882 111.46546936 69.98576355 C111.05353333 70.52217468 110.64159729 71.05858582 110.21717834 71.61125183 C106.384101 76.61249792 102.60319088 81.65214061 98.83265686 86.7006073 C97.47376112 88.51674154 96.11058262 90.32960702 94.74671936 92.14201355 C87.95954019 101.16550103 81.24714284 110.24059674 74.59046936 119.36076355 C70.82006769 118.76269984 68.6891817 117.08017139 65.77796936 114.67326355 C64.90785217 113.95525574 64.03773499 113.23724792 63.14125061 112.4974823 C62.2994928 111.79236511 61.45773499 111.08724792 60.59046936 110.36076355 C59.86214905 109.76908386 59.13382874 109.17740417 58.38343811 108.5677948 C56.74352115 107.21511381 55.16035013 105.79413295 53.59046936 104.36076355 C53.59046936 103.70076355 53.59046936 103.04076355 53.59046936 102.36076355 C53.02843811 102.26666199 52.46640686 102.17256042 51.88734436 102.0756073 C49.02515105 101.18482265 47.19276475 99.77204473 44.84046936 97.92326355 C44.04125061 97.30580261 43.24203186 96.68834167 42.41859436 96.0521698 C41.81531311 95.49400574 41.21203186 94.93584167 40.59046936 94.36076355 C40.59046936 93.70076355 40.59046936 93.04076355 40.59046936 92.36076355 C34.8094246 90.70903648 27.80682034 89.62673085 22.34437561 92.57170105 C20.23781796 94.3773219 18.42575888 96.27977605 16.59046936 98.36076355 C15.86214905 99.13291199 15.13382874 99.90506042 14.38343811 100.7006073 C9.8865913 105.54984756 5.70433101 110.62264732 1.60609436 115.8099823 C-4.45580274 123.48133657 -10.72360836 130.9683332 -17.1605072 138.32658386 C-19.66630819 141.21659643 -21.97794927 144.12725556 -24.14390564 147.28263855 C-24.89156189 148.2984198 -25.63921814 149.31420105 -26.40953064 150.36076355 C-27.06953064 150.36076355 -27.72953064 150.36076355 -28.40953064 150.36076355 C-28.54995844 133.58366042 -28.65562713 116.80674917 -28.72040367 100.0291996 C-28.7512858 92.23831612 -28.79335713 84.44779871 -28.86216736 76.65715027 C-28.92214367 69.86340846 -28.96072079 63.06993189 -28.97406161 56.27593267 C-28.98185494 52.6814656 -29.00004981 49.08775701 -29.04391098 45.49353409 C-29.0925858 41.47189049 -29.09345893 37.45154875 -29.09068298 33.42961121 C-29.11225464 32.24996796 -29.13382629 31.07032471 -29.15605164 29.85493469 C-29.08909659 20.86382871 -26.59393418 14.73307099 -20.35555077 8.21454811 C-14.24965315 2.40765496 -8.4142148 -0.01833162 0 0 Z " fill="#FBFCFC" transform="translate(36.40953063964844,7.6392364501953125)"/>
<path d="M0 0 C0.33 0 0.66 0 1 0 C1.06954327 13.43898762 1.12283343 26.87793235 1.15543652 40.31706333 C1.1710852 46.55755029 1.19230925 52.79791403 1.22631836 59.03833008 C1.25893973 65.06187589 1.27685902 71.08530325 1.28463173 77.10893059 C1.2901702 79.40581056 1.30098547 81.70268414 1.31719017 83.99951363 C1.33900092 87.21930013 1.34196534 90.43859864 1.34057617 93.65844727 C1.351362 94.60575714 1.36214783 95.55306702 1.3732605 96.52908325 C1.33841461 104.00435558 -0.32892982 109.26519133 -5 115.25 C-5.7425 116.21679688 -5.7425 116.21679688 -6.5 117.203125 C-11.18058646 122.81007753 -16.6174393 125.45281934 -23.92991829 126.3658123 C-27.20723143 126.51028062 -30.46204596 126.52936385 -33.74243164 126.50170898 C-35.59562263 126.50981346 -35.59562263 126.50981346 -37.48625183 126.51808167 C-40.84602359 126.52838315 -44.20479641 126.52094182 -47.56447911 126.50437045 C-51.09697987 126.49041914 -54.6294536 126.4969913 -58.16197205 126.50050354 C-64.09056857 126.50319741 -70.01896167 126.48980016 -75.94750977 126.46655273 C-82.78226515 126.43993579 -89.61668096 126.43820283 -96.45147043 126.4499411 C-103.05308846 126.46075375 -109.65458476 126.45450536 -116.25619316 126.44038582 C-119.05382637 126.43465738 -121.85136957 126.43468371 -124.64900398 126.43945122 C-128.56178567 126.4451492 -132.4742333 126.42581967 -136.38696289 126.40405273 C-137.53578949 126.40855438 -138.68461609 126.41305603 -139.86825562 126.41769409 C-148.13516275 126.34152121 -155.76284299 125.35668416 -162.375 120 C-163.00148437 119.505 -163.62796875 119.01 -164.2734375 118.5 C-165.92628473 117.06404223 -167.47579244 115.57096239 -169 114 C-167.948125 112.97326172 -167.948125 112.97326172 -166.875 111.92578125 C-163.76279109 108.81029403 -160.87608401 105.52024467 -158 102.1875 C-157.43748535 101.5373291 -156.8749707 100.8871582 -156.29541016 100.21728516 C-151.67390769 94.84544701 -147.19406505 89.36667668 -142.74291992 83.85351562 C-138.01949283 78.00621154 -133.22662606 72.22757822 -128.31298828 66.5390625 C-126.96609527 64.96025745 -125.65282502 63.35706203 -124.33984375 61.75 C-123.4774728 60.72839756 -122.6142282 59.70753178 -121.75 58.6875 C-121.00234375 57.78386719 -120.2546875 56.88023437 -119.484375 55.94921875 C-116.17519714 53.35286694 -114.1060599 53.56125725 -110 54 C-106.51115044 55.44659616 -104.95807587 57.05159893 -102.5625 60 C-99.47298445 63.75556695 -95.9081613 66.72627071 -92.125 69.75 C-91.25983765 70.45769531 -91.25983765 70.45769531 -90.37719727 71.1796875 C-84.87379983 75.49305708 -78.41524687 78.85139849 -71.203125 78.5390625 C-62.53024085 76.41697383 -56.37539121 69.6766737 -51 63 C-49.58999617 61.45223718 -48.17284382 59.91096745 -46.75 58.375 C-42.12839823 53.25822661 -37.90746974 47.87701365 -33.68359375 42.43359375 C-31.3650485 39.45002026 -28.97859757 36.53043379 -26.5625 33.625 C-22.91730723 29.20520376 -19.47567907 24.66132106 -16.0625 20.0625 C-10.95131494 13.18381941 -5.74919705 6.36389107 0 0 Z " fill="#0286F4" transform="translate(182,101)"/>
<path d="M0 0 C1.08151278 -0.00679667 1.08151278 -0.00679667 2.1848743 -0.01373065 C4.58358214 -0.02631831 6.98206128 -0.02475795 9.38079834 -0.02310181 C11.10780629 -0.02909063 12.83481157 -0.03589699 14.56181335 -0.04345703 C19.24175462 -0.06108938 23.9216227 -0.06581128 28.60159397 -0.0670886 C31.52929248 -0.06851247 34.45697253 -0.07278655 37.38466644 -0.07808304 C47.60946326 -0.09657503 57.83420801 -0.1047548 68.059021 -0.10317993 C77.57196256 -0.10197915 87.08467701 -0.12307117 96.59756112 -0.15466726 C104.77955825 -0.18086908 112.96148138 -0.19154557 121.14352012 -0.19026911 C126.02372208 -0.18976058 130.90372217 -0.19538355 135.78388214 -0.21662521 C140.37719699 -0.23607321 144.97011876 -0.23608745 149.56344795 -0.22159195 C151.24234915 -0.21951079 152.92127537 -0.22416316 154.6001339 -0.23631287 C167.06991081 -0.32065819 177.56252246 0.95377803 187.50091553 9.19711304 C193.79285316 15.67231099 196.66217143 22.57947282 196.6598053 31.47705078 C196.66348199 32.21647049 196.66715867 32.9558902 196.67094678 33.71771657 C196.68198507 36.20255494 196.68582773 38.68735148 196.68963623 41.17221069 C196.69590086 42.95113254 196.70254767 44.73005307 196.70954895 46.50897217 C196.73059493 52.35813485 196.74095307 58.2072978 196.75091553 64.05648804 C196.75496313 66.07057077 196.75908006 68.08465336 196.76326561 70.09873581 C196.78231987 79.56275672 196.7965494 89.02676982 196.80487758 98.49080622 C196.81464587 109.41091557 196.8409538 120.330822 196.88137847 131.25085986 C196.9115578 139.69345572 196.92634826 148.13599349 196.92965859 156.57864225 C196.93200736 161.61981733 196.9409451 166.66077569 196.96611977 171.70189285 C196.98943668 176.44779197 196.99361915 181.19333224 196.98335838 185.93927383 C196.98286376 187.67707006 196.98916239 189.41488416 197.00291443 191.15262604 C197.12768348 207.85949038 197.12768348 207.85949038 192.51263428 215.26742554 C191.93513428 216.29867554 191.35763428 217.32992554 190.76263428 218.39242554 C187.7580861 222.23157043 184.45634124 225.40096349 180.51263428 228.26742554 C179.98395563 228.67969422 179.45527699 229.09196291 178.91057777 229.51672459 C171.27357215 234.65936967 162.99134919 233.94954063 154.17034912 233.86679077 C152.41685133 233.86865681 150.66335471 233.8726977 148.90986633 233.8787384 C144.16811545 233.8886815 139.42696597 233.86759552 134.68530226 233.84025836 C129.71447927 233.8163602 124.74366683 233.81937278 119.77279663 233.81895447 C111.42881134 233.81433228 103.08505485 233.79072844 94.7411499 233.75448608 C85.10203743 233.71272868 75.46313074 233.69516927 65.82393301 233.69186634 C55.54754627 233.68826359 45.27123325 233.66938753 34.99487734 233.64474607 C32.03916042 233.63852579 29.08344912 233.63488427 26.12772751 233.63171196 C21.48028458 233.6257997 16.83298777 233.60945409 12.185606 233.5851078 C10.48246452 233.57768496 8.77930467 233.57359698 7.07614708 233.57312775 C4.74707741 233.57186423 2.41838908 233.55827396 0.08938599 233.5415802 C-1.21247965 233.53692969 -2.51434528 233.53227919 -3.85566139 233.52748775 C-7.73050159 233.25001485 -10.80924929 232.46192389 -14.48736572 231.26742554 C-14.15736572 230.27742554 -13.82736572 229.28742554 -13.48736572 228.26742554 C-14.80736572 227.93742554 -16.12736572 227.60742554 -17.48736572 227.26742554 C-16.49736572 225.28742554 -16.49736572 225.28742554 -15.48736572 223.26742554 C-14.30683215 223.58496166 -14.30683215 223.58496166 -13.10244942 223.90891266 C-5.08644489 225.93094815 2.31655604 226.70868226 10.56390381 226.68734741 C12.41293304 226.70005173 12.41293304 226.70005173 14.29931641 226.7130127 C17.63820367 226.73222366 20.97652853 226.73817314 24.31543207 226.73626518 C27.11851946 226.73614437 29.92155621 226.74475209 32.72462928 226.7530427 C39.34198791 226.77217899 45.95922043 226.77519494 52.57659912 226.7684021 C59.37343408 226.76175314 66.16972753 226.78468201 72.96645272 226.82171583 C78.83438558 226.85251299 84.70214498 226.86376254 90.57015693 226.85987902 C94.06089609 226.85782356 97.55121238 226.86310356 101.04187393 226.88777161 C104.93484641 226.91438356 108.82711889 226.90023461 112.72015381 226.88265991 C113.85707672 226.89592316 114.99399963 226.9091864 116.16537476 226.92285156 C124.43295284 226.8365144 132.20556788 225.20821175 138.48536873 219.46245575 C139.98116311 217.8023537 141.2650467 216.11964599 142.51263428 214.26742554 C143.11075928 213.38055054 143.70888428 212.49367554 144.32513428 211.57992554 C146.17050998 207.98629916 146.63724824 204.82741762 146.65739441 200.81365967 C146.66429291 199.92756516 146.67119141 199.04147064 146.67829895 198.12852478 C146.68091232 197.16422043 146.6835257 196.19991608 146.68621826 195.20639038 C146.69624878 193.67414574 146.69624878 193.67414574 146.70648193 192.11094666 C146.72052529 189.89399784 146.73242162 187.67703463 146.74242973 185.46006393 C146.75883353 181.95582559 146.78206868 178.45169479 146.80732727 174.94750977 C146.87813907 164.98486675 146.93836877 155.02218118 146.98944092 145.05941772 C147.02115405 138.96638159 147.06240316 132.87347128 147.10963631 126.78053665 C147.12569498 124.45444617 147.13799856 122.12832672 147.1465435 119.8021965 C147.15863809 116.55789071 147.18276067 113.31388351 147.20965576 110.06967163 C147.2102449 109.10131882 147.21083405 108.132966 147.21144104 107.13526917 C147.22601852 105.81458687 147.22601852 105.81458687 147.2408905 104.46722412 C147.24512244 103.69995687 147.24935438 102.93268963 147.25371456 102.14217186 C147.51263428 100.26742554 147.51263428 100.26742554 149.51263428 98.26742554 C153.04834856 98.80313982 153.04834856 98.80313982 154.51263428 100.26742554 C154.61453402 101.65106506 154.64781095 103.03983885 154.65307617 104.42721558 C154.65878632 105.32431244 154.66449646 106.2214093 154.67037964 107.14569092 C154.67205643 108.63390854 154.67205643 108.63390854 154.67376709 110.15219116 C154.67873199 111.19126617 154.6836969 112.23034119 154.68881226 113.30090332 C154.70348481 116.75850068 154.71024639 120.21605208 154.71575928 123.67367554 C154.72150912 126.07207237 154.72726687 128.47046918 154.73303223 130.86886597 C154.74355845 135.90959895 154.74938964 140.95031591 154.75286865 145.99105835 C154.75833899 152.43936563 154.782329 158.88746021 154.81084061 165.33570099 C154.82950437 170.29607755 154.83467471 175.25640343 154.83620453 180.21681213 C154.83922609 182.59297338 154.84723779 184.96913385 154.86038971 187.34526062 C154.87751835 190.67950338 154.87555241 194.01323428 154.86907959 197.34750366 C154.87829437 198.3234549 154.88750916 199.29940613 154.89700317 200.30493164 C154.85736387 206.85072147 154.39785872 213.823851 150.02525711 219.04264069 C148.55130386 220.48253761 147.03431608 221.87806389 145.51263428 223.26742554 C145.18263428 224.25742554 144.85263428 225.24742554 144.51263428 226.26742554 C147.36704015 226.12546038 150.22109624 225.97896727 153.07513428 225.82992554 C153.87499756 225.79060913 154.67486084 225.75129272 155.4989624 225.71078491 C166.1501173 225.14562159 174.64022522 223.58650553 182.25872803 215.38851929 C183.76328732 213.38463125 183.76328732 213.38463125 185.51263428 210.26742554 C185.87707956 209.68295938 186.24152485 209.09849321 186.61701393 208.49631596 C187.87267847 205.37139961 187.77109428 202.65717313 187.78005981 199.29267883 C187.78685648 198.23951228 187.78685648 198.23951228 187.79379046 197.16506964 C187.80645067 194.81232124 187.80481303 192.45980385 187.80316162 190.10702515 C187.80914613 188.41986798 187.8159515 186.73271356 187.82351685 185.04556274 C187.84119846 180.46048189 187.84587332 175.87547568 187.84714842 171.29036403 C187.8485701 168.4231525 187.85284017 165.55595994 187.85814285 162.68875313 C187.87665486 152.67793703 187.88481257 142.6671742 187.88323975 132.65634155 C187.88204013 123.33943326 187.90310407 114.02275731 187.93472707 104.70590776 C187.9609338 96.6980671 187.9716051 88.69030207 187.97032893 80.68241888 C187.9698203 75.90389283 187.97544737 71.12557294 187.99668503 66.34708977 C188.01613989 61.84655977 188.01614263 57.3464309 188.00165176 52.84588623 C187.99957107 51.20085116 188.00422016 49.55579052 188.01637268 47.91079903 C188.08787296 37.55513298 187.72040391 27.54703074 181.26263428 18.89242554 C176.95139507 14.77715175 172.41928159 11.49085137 166.51263428 10.26742554 C166.51263428 9.60742554 166.51263428 8.94742554 166.51263428 8.26742554 C144.09430177 8.30460835 121.67613194 8.36449299 99.25793457 8.45132828 C88.84852849 8.49112035 78.43919803 8.52351201 68.02972412 8.53842163 C58.95574388 8.55143724 49.88193002 8.57839969 40.80804348 8.6220386 C36.00443636 8.64465536 31.20103447 8.66033608 26.39736938 8.65930939 C21.87303771 8.65856291 17.34915973 8.67650891 12.82494545 8.70859337 C11.16739281 8.71708969 9.50978926 8.7188441 7.85222435 8.71322823 C-3.88651861 8.60737485 -3.88651861 8.60737485 -14.48736572 13.26742554 C-15.5450415 13.95385132 -15.5450415 13.95385132 -16.62408447 14.65414429 C-22.55985013 19.6330107 -26.20206884 25.6047946 -27.48736572 33.26742554 C-27.575152 34.96146204 -27.61620744 36.65835226 -27.6186676 38.35466003 C-27.62267578 39.35652344 -27.62668396 40.35838684 -27.6308136 41.39060974 C-27.63028488 42.478936 -27.62975616 43.56726227 -27.62921143 44.68856812 C-27.63442307 46.42138535 -27.63442307 46.42138535 -27.63973999 48.18920898 C-27.64708936 50.6980472 -27.65243911 53.20689189 -27.65603065 55.7157383 C-27.66321298 59.69856027 -27.67854701 63.68129838 -27.69737244 67.66407776 C-27.70370975 69.03205962 -27.71003537 70.40004153 -27.7163496 71.76802349 C-27.71951541 72.45313389 -27.72268122 73.13824429 -27.72594297 73.84411561 C-27.76785582 83.10881949 -27.80093035 92.37348286 -27.81329346 101.63827515 C-27.82172995 107.89641704 -27.84442865 114.15434092 -27.88264912 120.41237372 C-27.90223237 123.71497868 -27.91263091 127.01719237 -27.90981483 130.31986427 C-27.9016538 143.02188228 -27.9438714 154.87605274 -31.57701111 167.10829163 C-32.77839069 171.27734721 -33.08897828 175.17102111 -33.09674072 179.48617554 C-33.11327698 180.24039795 -33.12981323 180.99462036 -33.14685059 181.771698 C-33.19416602 184.10369901 -33.21643233 186.43505603 -33.23736572 188.76742554 C-33.26562385 190.38073727 -33.29556435 191.99402044 -33.32720947 193.60726929 C-33.39988695 197.49393433 -33.45016188 201.38026584 -33.48736572 205.26742554 C-33.81736572 205.26742554 -34.14736572 205.26742554 -34.48736572 205.26742554 C-34.60426908 181.84072637 -34.69238831 158.41407105 -34.74642658 134.98713875 C-34.77218661 124.1091142 -34.80729517 113.23127111 -34.86456299 102.35336304 C-34.91446521 92.86999922 -34.94667273 83.38676684 -34.9578082 73.90327537 C-34.96431538 68.8837474 -34.97956333 63.86459539 -35.01601601 58.84518814 C-35.0500832 54.11570731 -35.06039708 49.3867555 -35.05290413 44.65716362 C-35.05427389 42.92622307 -35.06414237 41.19526389 -35.0833931 39.46442986 C-35.18253806 30.08623774 -34.98057148 22.29268072 -29.48736572 14.26742554 C-28.76549072 13.19492554 -28.04361572 12.12242554 -27.29986572 11.01742554 C-19.5766757 3.46586196 -10.77394202 0.02811238 0 0 Z " fill="#0D3973" transform="translate(35.48736572265625,-0.267425537109375)"/>
<path d="M0 0 C1.32 0 2.64 0 4 0 C4 11.55 4 23.1 4 35 C0 34 0 34 -3 32 C-5.49006607 31.55858643 -5.49006607 31.55858643 -8 32 C-9.8029233 33.33976536 -9.8029233 33.33976536 -11.234375 35.296875 C-11.80406006 36.00263672 -12.37374512 36.70839844 -12.96069336 37.43554688 C-13.55116455 38.19931641 -14.14163574 38.96308594 -14.75 39.75 C-15.36689697 40.52408203 -15.98379395 41.29816406 -16.61938477 42.09570312 C-20.8601457 47.44498954 -25.00069265 52.87224289 -29.05078125 58.3671875 C-30.86807709 60.82181154 -32.73306096 63.22770859 -34.625 65.625 C-37.08456708 68.75639327 -39.37623108 71.96408334 -41.625 75.25 C-44.14927352 78.9048794 -46.85736587 81.85736587 -50 85 C-53.65616569 89.75742042 -57.15569409 94.62342329 -60.375 99.6875 C-60.91125 100.450625 -61.4475 101.21375 -62 102 C-62.66 102 -63.32 102 -64 102 C-64.22171875 102.51949219 -64.4434375 103.03898437 -64.671875 103.57421875 C-67.61760112 108.95450087 -71.86259046 113.58973077 -75.69921875 118.35449219 C-76.77219418 119.71182222 -77.79900089 121.10551416 -78.8125 122.5078125 C-80.25 124.4375 -80.25 124.4375 -83 127 C-88.18860722 127.00617691 -90.96602521 125.70206576 -94.6784668 122.1027832 C-95.19707275 121.57386475 -95.71567871 121.04494629 -96.25 120.5 C-97.38425153 119.39719631 -98.52100673 118.29696229 -99.66015625 117.19921875 C-100.22105957 116.65442871 -100.78196289 116.10963867 -101.35986328 115.54833984 C-104.53032334 112.55532739 -107.96243843 109.88791223 -111.375 107.1796875 C-114.12675926 104.89474455 -116.63208999 102.43837382 -119.1875 99.9375 C-123.18227983 96.33258094 -123.18227983 96.33258094 -128.25 95 C-132.73983161 96.19728843 -134.14995276 97.77535249 -136.7734375 101.46875 C-137.17820313 101.9740625 -137.58296875 102.479375 -138 103 C-138.66 103 -139.32 103 -140 103 C-140.21527344 103.52464844 -140.43054688 104.04929687 -140.65234375 104.58984375 C-142.52861105 107.94537106 -145.03493265 110.69083313 -147.5625 113.5625 C-148.65855103 114.82335107 -149.75359489 116.08507833 -150.84765625 117.34765625 C-151.38664551 117.96914551 -151.92563477 118.59063477 -152.48095703 119.23095703 C-154.53135433 121.61880319 -156.51933221 124.05414785 -158.5 126.5 C-166.39824571 136.21212855 -174.56257805 145.67183343 -183.13671875 154.79296875 C-185.18776233 156.9460234 -185.18776233 156.9460234 -186 160 C-186.99 160 -187.98 160 -189 160 C-190.73403438 136.83063289 -190.73403438 136.83063289 -187.08984375 131.27734375 C-184.54145554 128.6029147 -181.87032779 126.32129181 -179 124 C-177.49697081 122.26694199 -176.03806226 120.49466403 -174.625 118.6875 C-171.15629194 114.39144991 -167.60560725 110.18075912 -164 106 C-158.09721213 99.14700726 -152.34994088 92.17750665 -146.69140625 85.12109375 C-144.4880291 82.39009509 -142.25577073 79.68781521 -140 77 C-139.08927734 75.88818359 -139.08927734 75.88818359 -138.16015625 74.75390625 C-135.28633744 71.51515806 -133.54606798 70.15734162 -129.3125 68.9375 C-123.23605066 69.50056866 -118.82644438 74.70227709 -114.52148438 78.63183594 C-111.366252 81.46911486 -108.02551944 84.08717017 -104.7265625 86.75390625 C-102.83769251 88.30992379 -100.9798843 89.90412994 -99.1484375 91.52734375 C-98.21257812 92.34332031 -97.27671875 93.15929687 -96.3125 94 C-95.48363281 94.7425 -94.65476562 95.485 -93.80078125 96.25 C-89.8797667 98.69995052 -87.6571842 99.11906272 -83 99 C-80.79712169 97.07330345 -79.65649758 95.76017367 -78.125 93.375 C-77.27553515 92.16480576 -76.42525151 90.95518591 -75.57421875 89.74609375 C-75.14931152 89.12202637 -74.7244043 88.49795898 -74.28662109 87.85498047 C-72.28055539 84.96274381 -70.10666904 82.2081396 -67.9375 79.4375 C-63.99894213 74.33343491 -60.1290695 69.1797007 -56.26953125 64.015625 C-53.93166683 60.90920274 -51.56425277 57.82665542 -49.1875 54.75 C-45.36441517 49.79437241 -41.57462421 44.81458185 -37.8125 39.8125 C-37.30436768 39.13735352 -36.79623535 38.46220703 -36.27270508 37.76660156 C-32.81099549 33.14345308 -29.49076893 28.44375002 -26.3046875 23.625 C-25.87414062 23.08875 -25.44359375 22.5525 -25 22 C-24.34 22 -23.68 22 -23 22 C-23.25662245 20.55989519 -23.53090821 19.1229313 -23.8125 17.6875 C-24.03873047 16.48673828 -24.03873047 16.48673828 -24.26953125 15.26171875 C-25.08533345 12.73578574 -26.13876791 11.82043796 -28 10 C-28 9.01 -28 8.02 -28 7 C-24.81400604 6.18151748 -21.6259612 5.37131301 -18.4375 4.5625 C-17.54224609 4.33240234 -16.64699219 4.10230469 -15.72460938 3.86523438 C-11.79686934 2.87250887 -7.930487 1.92736011 -3.91015625 1.40234375 C-1.1127461 1.31394751 -1.1127461 1.31394751 0 0 Z " fill="#039EF6" transform="translate(196,36)"/>
<path d="M0 0 C0.33 0 0.66 0 1 0 C1.33 47.19 1.66 94.38 2 143 C4.64700976 132.41196097 6.5948432 124.52521655 6.54589844 114.07617188 C6.55623611 112.89365341 6.56657379 111.71113495 6.57722473 110.49278259 C6.60631521 106.65129379 6.60814474 102.81033956 6.609375 98.96875 C6.62220479 96.27874007 6.64092053 93.58877938 6.65948486 90.89880371 C6.69974053 84.58467155 6.72031307 78.27064184 6.73345876 71.95640135 C6.74943319 64.7565601 6.78789143 57.55689068 6.82805204 50.35715008 C6.9100333 35.57150287 6.96438497 20.78583353 7 6 C7.33 6 7.66 6 8 6 C8 47.25 8 88.5 8 131 C8.66 131 9.32 131 10 131 C10.22042969 130.47277344 10.44085938 129.94554687 10.66796875 129.40234375 C12.48729611 126.12115217 14.87652149 123.39315232 17.3125 120.5625 C17.78623047 120.00240234 18.25996094 119.44230469 18.74804688 118.86523438 C21.6910778 115.41492316 24.75220621 112.16497209 28 109 C27.95875 109.7425 27.9175 110.485 27.875 111.25 C28.00543638 114.11960046 28.6545235 115.52093306 30 118 C28.96552734 119.21623047 28.96552734 119.21623047 27.91015625 120.45703125 C22.46471579 126.87024711 17.07169193 133.31651792 11.77734375 139.85546875 C10 142 10 142 8 144 C7.62826984 146.6182767 7.62826984 146.6182767 7.5859375 149.6640625 C7.54726562 150.78554687 7.50859375 151.90703125 7.46875 153.0625 C7.4378125 154.238125 7.406875 155.41375 7.375 156.625 C7.33632812 157.80835938 7.29765625 158.99171875 7.2578125 160.2109375 C7.16331155 163.14046691 7.07775442 166.06998597 7 169 C7.99 169 8.98 169 10 169 C10.11085938 168.40324463 10.22171875 167.80648926 10.3359375 167.19165039 C11.06933291 164.7711759 11.87685082 163.73052985 13.625 161.93359375 C14.16205566 161.37148193 14.69911133 160.80937012 15.25244141 160.23022461 C15.82913574 159.63862549 16.40583008 159.04702637 17 158.4375 C21.81624854 153.37892862 26.38596705 148.23013999 30.7578125 142.77734375 C33.28945456 139.6414596 35.88779328 136.56873509 38.5 133.5 C46.86688696 123.83225345 46.86688696 123.83225345 54.625 113.69140625 C55.305625 112.85416016 55.305625 112.85416016 56 112 C56.66 112 57.32 112 58 112 C58.2475 111.4225 58.495 110.845 58.75 110.25 C60.27717864 107.50107845 61.44886792 105.87978153 64 104 C69.1070401 103.38885576 70.985776 103.27695249 75.23828125 106.30859375 C76.28146697 107.33311246 77.30565988 108.37724155 78.3125 109.4375 C79.43755905 110.54945602 80.56520077 111.65880454 81.6953125 112.765625 C82.24993164 113.31669922 82.80455078 113.86777344 83.37597656 114.43554688 C86.51675776 117.46112203 89.96285847 120.11052924 93.37109375 122.82421875 C96.12303253 125.10182633 98.67080474 127.52973003 101.25 130 C105.08827971 133.50434112 105.08827971 133.50434112 109.8125 135.4375 C114.30114 134.82141216 115.28319985 132.48307711 118 129 C121.25 128.0625 121.25 128.0625 124 128 C125 129 125 129 125.5 131.125 C124.70762027 135.68118347 121.42895077 138.08502472 118 141 C113.92458449 143.71694367 110.78258007 143.61892213 106 143 C99.23670355 140.17171239 94.31664298 134.93808454 89 130 C86.3626881 127.63149104 83.68574294 125.31326764 81 123 C80.08734375 122.1853125 79.1746875 121.370625 78.234375 120.53125 C77.27015625 119.6959375 76.3059375 118.860625 75.3125 118 C74.42175781 117.21625 73.53101562 116.4325 72.61328125 115.625 C70.1584896 113.7982538 70.1584896 113.7982538 67.5 113.91015625 C64.11030882 115.38784975 62.05069573 117.68970575 59.6875 120.4375 C59.20458496 120.98172607 58.72166992 121.52595215 58.22412109 122.08666992 C54.75004571 126.03553176 51.4557627 130.11509859 48.2109375 134.25390625 C45.47044463 137.65773397 42.61951549 140.95479637 39.75 144.25 C39.19489746 144.88752197 38.63979492 145.52504395 38.06787109 146.18188477 C36.93736969 147.47949952 35.80667238 148.77694363 34.67578125 150.07421875 C32.022626 153.12318271 29.38323723 156.18382634 26.75 159.25 C26.01305908 160.10742798 26.01305908 160.10742798 25.26123047 160.98217773 C21.32760587 165.57712072 17.5125319 170.25808727 13.7421875 174.98828125 C12 177 12 177 10 178 C9.34786708 180.02463255 9.34786708 180.02463255 9 182 C9.66 182 10.32 182 11 182 C12.4606285 184.64738916 13 185.89448334 13 189 C13.7734375 189.3403125 13.7734375 189.3403125 14.5625 189.6875 C17.92403127 191.4975553 20.92911144 193.73996404 24 196 C23.0409375 196.1546875 23.0409375 196.1546875 22.0625 196.3125 C21.381875 196.539375 20.70125 196.76625 20 197 C19.67 197.99 19.34 198.98 19 200 C19.99 200.33 20.98 200.66 22 201 C22 201.66 22 202.32 22 203 C26.6222648 204.79043902 30.49146352 205.26001941 35.43630981 205.28761292 C36.16392545 205.29426073 36.89154108 205.30090854 37.64120567 205.30775779 C40.06829644 205.32737087 42.49520222 205.33281862 44.92236328 205.33813477 C46.66730731 205.34903586 48.41224666 205.36070821 50.15718079 205.37309265 C54.89094151 205.40355149 59.62465369 205.42060528 64.35849237 205.43330884 C67.31986248 205.44140502 70.2812188 205.45158607 73.24258041 205.46232414 C82.51918292 205.49503225 91.79575171 205.51893508 101.07240403 205.531138 C111.76003322 205.54538232 122.44700089 205.58922634 133.13441098 205.65863949 C141.40897017 205.71051755 149.68334183 205.73531876 157.9580611 205.73996013 C162.89384213 205.74334944 167.82895368 205.75806882 172.7645607 205.80124092 C177.41224712 205.84118352 182.0588022 205.84731453 186.70660973 205.82834053 C188.40447004 205.82708119 190.10239023 205.8376174 191.80008507 205.86135483 C203.52988084 206.01589168 212.31710322 204.24065997 221.22114754 195.92583561 C224.70064936 192.2810816 227.12035662 188.34689678 229.17578125 183.76171875 C230 182 230 182 232 179 C231.64207636 185.68124128 229.88646678 189.6124727 226 195 C225.443125 195.86625 224.88625 196.7325 224.3125 197.625 C219.51301348 202.55420237 212.74412753 206.84119752 205.76957607 207.13701439 C204.40748543 207.14774338 203.04534483 207.15293743 201.68321228 207.15390015 C200.93224748 207.1582824 200.18128267 207.16266465 199.40756136 207.1671797 C196.88360283 207.18056615 194.35967922 207.18674628 191.83569336 207.19287109 C190.02883751 207.20077235 188.22198323 207.20904131 186.41513062 207.21765137 C180.47338366 207.24387454 174.53162966 207.25918194 168.58984375 207.2734375 C166.54358986 207.27879756 164.49733602 207.28417507 162.45108223 207.28956985 C153.93696548 207.31120136 145.42285062 207.32993662 136.90871334 207.34119225 C124.71329312 207.35742094 112.51819204 207.39056951 100.32289213 207.44759309 C91.74525162 207.4863305 83.16769632 207.5058296 74.58997065 207.51111281 C69.46878553 207.51476179 64.34794078 207.5267346 59.22685051 207.55921555 C54.40456461 207.58936199 49.58282383 207.59558455 44.76046371 207.58383179 C42.99566551 207.58361158 41.23084153 207.5918723 39.46613121 207.60948563 C30.00196862 207.69876266 22.1050356 207.53815621 14 202 C13.0925 201.4225 12.185 200.845 11.25 200.25 C4.53229266 193.53229266 -0.29812744 184.87433913 -0.38724393 175.23001575 C-0.37413614 174.20857739 -0.37413614 174.20857739 -0.36076355 173.16650391 C-0.36332682 172.42054553 -0.3658901 171.67458715 -0.36853105 170.90602398 C-0.37343644 168.42931043 -0.35703053 165.95321901 -0.34057617 163.4765625 C-0.33972919 161.69215408 -0.34020642 159.90774461 -0.34190369 158.12333679 C-0.34276231 153.29535979 -0.32515812 148.46760765 -0.30418181 143.63968277 C-0.28539279 138.58816934 -0.28366282 133.53665041 -0.28010559 128.48510742 C-0.27079167 118.92655471 -0.2461867 109.36810527 -0.21605712 99.80959797 C-0.18249281 88.92450715 -0.16602199 78.03941133 -0.15097082 67.15428162 C-0.11963659 44.76946388 -0.06688876 22.38473774 0 0 Z " fill="#154079" transform="translate(0,27)"/>
<path d="M0 0 C1.25916922 0.00184359 2.51833843 0.00368717 3.81566429 0.00558662 C4.86565875 0.00302335 4.86565875 0.00302335 5.93686521 0.00040829 C8.29389614 -0.00289879 10.65064546 0.00813688 13.00765038 0.01904488 C14.69265295 0.01960873 16.37765602 0.01929294 18.06265831 0.01815987 C22.64714715 0.01758434 27.23153204 0.02937096 31.81599665 0.04330778 C36.6032951 0.05578185 41.39059575 0.05698301 46.17790794 0.0593586 C55.24789363 0.06558316 64.3178313 0.08200716 73.38779581 0.10205758 C83.71170191 0.12438624 94.03561027 0.13540236 104.3595345 0.14544845 C125.60082783 0.16637256 146.84207788 0.20156746 168.08333397 0.24609566 C167.09333397 0.90609566 166.10333397 1.56609566 165.08333397 2.24609566 C166.07333397 2.57609566 167.06333397 2.90609566 168.08333397 3.24609566 C168.41333397 4.23609566 168.74333397 5.22609566 169.08333397 6.24609566 C146.98721084 6.33947918 124.89112019 6.41004552 102.79483986 6.45334435 C92.53546877 6.47398186 82.27622019 6.50212518 72.01692772 6.54785347 C63.07638111 6.58768482 54.1359232 6.61351981 45.19529033 6.62244964 C40.45993556 6.62767067 35.72483461 6.63996662 30.98956108 6.66901588 C26.53428269 6.69612654 22.07936313 6.7045495 17.62401009 6.69852638 C15.9873122 6.69962857 14.35060256 6.70760846 12.71397591 6.72291756 C10.48161053 6.74277834 8.25060537 6.73805039 6.01820946 6.72711372 C4.76825817 6.7308009 3.51830688 6.73448807 2.23047829 6.73828697 C-1.46109695 6.16095048 -2.62801725 5.12403386 -4.91666603 2.24609566 C-2.91666603 0.24609566 -2.91666603 0.24609566 0 0 Z " fill="#043371" transform="translate(36.91666603088379,0.7539043426513672)"/>
<path d="M0 0 C0.66 0.66 1.32 1.32 2 2 C1.69903201 6.13830989 1.32101984 8.51847024 -1 12 C-1.88481118 15.39919598 -2.1262215 18.58425522 -2.13130188 22.0872345 C-2.13531006 23.0890979 -2.13931824 24.0909613 -2.14344788 25.1231842 C-2.14291916 26.21151047 -2.14239044 27.29983673 -2.1418457 28.42114258 C-2.14705734 30.15395981 -2.14705734 30.15395981 -2.15237427 31.92178345 C-2.15972364 34.43062166 -2.16507338 36.93946635 -2.16866493 39.44831276 C-2.17584726 43.43113474 -2.19118129 47.41387284 -2.21000671 51.39665222 C-2.21634403 52.76463408 -2.22266965 54.13261599 -2.22898388 55.50059795 C-2.23214969 56.18570835 -2.2353155 56.87081876 -2.23857725 57.57669008 C-2.28049009 66.84139395 -2.31356463 76.10605732 -2.32592773 85.37084961 C-2.33436422 91.6289915 -2.35706292 97.88691539 -2.3952834 104.14494818 C-2.41486665 107.44755314 -2.42526519 110.74976684 -2.42244911 114.05243874 C-2.41428808 126.75445675 -2.45650568 138.60862721 -6.08964539 150.84086609 C-7.29102497 155.00992167 -7.60161256 158.90359557 -7.609375 163.21875 C-7.62591125 163.97297241 -7.64244751 164.72719482 -7.65948486 165.50427246 C-7.7068003 167.83627348 -7.72906661 170.1676305 -7.75 172.5 C-7.77825813 174.11331173 -7.80819863 175.7265949 -7.83984375 177.33984375 C-7.91252123 181.22650879 -7.96279616 185.1128403 -8 189 C-8.33 189 -8.66 189 -9 189 C-9.02333254 165.82622585 -9.04098093 142.65245362 -9.05181217 119.47867012 C-9.05697437 108.71933729 -9.06401563 97.96001175 -9.07543945 87.20068359 C-9.0853886 77.82580335 -9.09185398 68.45092838 -9.09408849 59.07604301 C-9.09539521 54.10946683 -9.09847859 49.14290574 -9.10573006 44.17633438 C-9.1124939 39.50610804 -9.11461621 34.83590308 -9.11310768 30.1656723 C-9.11338384 28.44752512 -9.11538682 26.72937725 -9.11920547 25.01123428 C-9.12414839 22.67348864 -9.12299605 20.33582475 -9.12025452 17.99807739 C-9.12163721 16.03189296 -9.12163721 16.03189296 -9.12304783 14.02598763 C-9 11 -9 11 -8 9 C-7.34 9 -6.68 9 -6 9 C-5.7525 8.2575 -5.505 7.515 -5.25 6.75 C-3.90852699 3.79875938 -2.39094474 2.15185026 0 0 Z " fill="#05336F" transform="translate(10,16)"/>
<path d="M0 0 C1.74544244 0.00113019 3.49088678 0.00049128 5.23632812 -0.00177002 C9.94437365 -0.00291142 14.65200638 0.02050424 19.3599565 0.04852581 C24.2913257 0.07363583 29.22270576 0.075889 34.15412903 0.08062744 C43.47887753 0.09302911 52.80343707 0.12581252 62.1281026 0.1660254 C72.74965245 0.21083078 83.37121162 0.23275215 93.99283254 0.25280714 C115.82971819 0.29454777 137.66643407 0.36484493 159.50317383 0.45410156 C159.50317383 0.78410156 159.50317383 1.11410156 159.50317383 1.45410156 C103.07317383 1.78410156 46.64317383 2.11410156 -11.49682617 2.45410156 C-11.49682617 3.11410156 -11.49682617 3.77410156 -11.49682617 4.45410156 C-8.67240358 7.27852415 -6.8513905 6.71227122 -2.8918457 6.72584534 C-2.20551119 6.73093217 -1.51917667 6.73601901 -0.81204414 6.74125999 C1.49881386 6.75597966 3.80945965 6.75645554 6.12036133 6.75708008 C7.77256691 6.76473736 9.42476858 6.77328297 11.07696533 6.78265381 C14.64012078 6.80096239 18.20322341 6.8129818 21.76641846 6.82019234 C27.39601386 6.83165092 33.02549219 6.8570947 38.6550293 6.88450623 C47.55613524 6.92619515 56.45724674 6.95859202 65.35840416 6.98698038 C81.3052469 7.03792182 97.25204106 7.1000085 113.19880104 7.17232078 C118.79970273 7.19729085 124.40058893 7.21670106 130.00152588 7.23170292 C133.48039899 7.24188308 136.95924806 7.25602904 140.43810272 7.2711792 C142.05626613 7.2773523 143.67443713 7.28180171 145.29261017 7.28443718 C147.49451613 7.2882293 149.69631515 7.29802671 151.89819336 7.30934143 C153.74986618 7.3151238 153.74986618 7.3151238 155.63894653 7.32102299 C158.50317383 7.45410156 158.50317383 7.45410156 160.50317383 8.45410156 C160.50317383 9.11410156 160.50317383 9.77410156 160.50317383 10.45410156 C159.18317383 10.45410156 157.86317383 10.45410156 156.50317383 10.45410156 C156.50317383 9.79410156 156.50317383 9.13410156 156.50317383 8.45410156 C134.08484132 8.49128438 111.66667149 8.55116901 89.24847412 8.6380043 C78.83906804 8.67779637 68.42973758 8.71018804 58.02026367 8.72509766 C48.94628343 8.73811327 39.87246957 8.76507571 30.79858303 8.80871463 C25.99497591 8.83133139 21.19157402 8.84701211 16.38790894 8.84598541 C11.86357726 8.84523893 7.33969928 8.86318494 2.815485 8.89526939 C1.15793236 8.90376572 -0.49967119 8.90552012 -2.1572361 8.89990425 C-12.46189069 8.86965077 -20.3455447 9.24407878 -28.37182617 16.57910156 C-28.92612305 17.07667969 -29.48041992 17.57425781 -30.05151367 18.08691406 C-31.21809644 19.1904383 -32.36133485 20.31861024 -33.49682617 21.45410156 C-34.15682617 20.13410156 -34.81682617 18.81410156 -35.49682617 17.45410156 C-36.30120117 18.40285156 -37.10557617 19.35160156 -37.93432617 20.32910156 C-38.61301758 21.12960938 -38.61301758 21.12960938 -39.30541992 21.94628906 C-40.58464137 23.46004236 -40.58464137 23.46004236 -41.49682617 25.45410156 C-42.15682617 25.45410156 -42.81682617 25.45410156 -43.49682617 25.45410156 C-43.82682617 26.11410156 -44.15682617 26.77410156 -44.49682617 27.45410156 C-44.12475262 20.38470399 -40.34011399 14.36364075 -35.48510742 9.39550781 C-24.77119002 0.45121411 -13.3308193 -0.12163307 0 0 Z " fill="#32527F" transform="translate(45.496826171875,-0.4541015625)"/>
<path d="M0 0 C0.99 0.495 0.99 0.495 2 1 C-3.23722394 7.06415403 -8.85853113 10.35924632 -16.92747688 11.36483574 C-20.20567952 11.51026997 -23.46111715 11.52937168 -26.74243164 11.50170898 C-28.59562263 11.50981346 -28.59562263 11.50981346 -30.48625183 11.51808167 C-33.84602359 11.52838315 -37.20479641 11.52094182 -40.56447911 11.50437045 C-44.09697987 11.49041914 -47.6294536 11.4969913 -51.16197205 11.50050354 C-57.09056857 11.50319741 -63.01896167 11.48980016 -68.94750977 11.46655273 C-75.78226515 11.43993579 -82.61668096 11.43820283 -89.45147043 11.4499411 C-96.05308846 11.46075375 -102.65458476 11.45450536 -109.25619316 11.44038582 C-112.05382637 11.43465738 -114.85136957 11.43468371 -117.64900398 11.43945122 C-121.56178567 11.4451492 -125.4742333 11.42581967 -129.38696289 11.40405273 C-130.53578949 11.40855438 -131.68461609 11.41305603 -132.86825562 11.41769409 C-147.43026397 11.28351693 -147.43026397 11.28351693 -152.74369907 6.39610958 C-153.15827838 5.93539342 -153.57285769 5.47467726 -154 5 C-152.68 5 -151.36 5 -150 5 C-150 5.66 -150 6.32 -150 7 C-148.9275 6.979375 -147.855 6.95875 -146.75 6.9375 C-143 7 -143 7 -141.0899086 7.4940176 C-138.61011412 8.09439427 -136.36330235 8.14013855 -133.8114624 8.15821838 C-132.76260864 8.1680072 -131.71375488 8.17779602 -130.63311768 8.18788147 C-129.4880072 8.19363693 -128.34289673 8.1993924 -127.16308594 8.20532227 C-125.95305908 8.21522186 -124.74303223 8.22512146 -123.49633789 8.23532104 C-120.18263614 8.26148599 -116.86895819 8.28335742 -113.55521679 8.30332303 C-110.0905163 8.32521241 -106.62585926 8.35258664 -103.16119385 8.37937927 C-96.6023137 8.42926628 -90.04340939 8.47421989 -83.48448205 8.51740164 C-76.01654626 8.56680816 -68.54865408 8.62171361 -61.08076048 8.67708123 C-45.72054729 8.79083998 -30.36029398 8.89769228 -15 9 C-15 8.34 -15 7.68 -15 7 C-14.33613281 6.82984375 -13.67226562 6.6596875 -12.98828125 6.484375 C-7.83004654 5.06868431 -3.94122403 3.8098499 0 0 Z " fill="#0E6BCD" transform="translate(175,216)"/>
<path d="M0 0 C0.33 0 0.66 0 1 0 C0.64207636 6.68124128 -1.11353322 10.6124727 -5 16 C-5.556875 16.86625 -6.11375 17.7325 -6.6875 18.625 C-11.48698652 23.55420237 -18.25587247 27.84119752 -25.23042393 28.13701439 C-26.59251457 28.14774338 -27.95465517 28.15293743 -29.31678772 28.15390015 C-30.06775252 28.1582824 -30.81871733 28.16266465 -31.59243864 28.1671797 C-34.11639717 28.18056615 -36.64032078 28.18674628 -39.16430664 28.19287109 C-40.97116249 28.20077235 -42.77801677 28.20904131 -44.58486938 28.21765137 C-50.52661634 28.24387454 -56.46837034 28.25918194 -62.41015625 28.2734375 C-64.45641014 28.27879756 -66.50266398 28.28417507 -68.54891777 28.28956985 C-77.06303452 28.31120136 -85.57714938 28.32993662 -94.09128666 28.34119225 C-106.28670688 28.35742094 -118.48180796 28.39056951 -130.67710787 28.44759309 C-139.25474838 28.4863305 -147.83230368 28.5058296 -156.41002935 28.51111281 C-161.53121447 28.51476179 -166.65205922 28.5267346 -171.77314949 28.55921555 C-176.59543539 28.58936199 -181.41717617 28.59558455 -186.23953629 28.58383179 C-188.00433449 28.58361158 -189.76915847 28.5918723 -191.53386879 28.60948563 C-200.99803138 28.69876266 -208.8949644 28.53815621 -217 23 C-217.9075 22.4225 -218.815 21.845 -219.75 21.25 C-223.09691862 17.90308138 -225.50840331 14.00710395 -228 10 C-227.67 9.34 -227.34 8.68 -227 8 C-225 9 -225 9 -224.125 11.25 C-221.84119608 16.83263181 -217.99301245 20.56627833 -212.6032486 23.14809895 C-203.53506936 26.45541981 -194.90002138 26.5875414 -185.39648438 26.56518555 C-183.65065001 26.57553751 -181.90482473 26.58753155 -180.15901184 26.60102844 C-175.45031653 26.63188546 -170.74192829 26.63735734 -166.033144 26.63609672 C-162.08942854 26.63693128 -158.14577833 26.64920272 -154.20208311 26.66104633 C-144.89363166 26.68834966 -135.5853385 26.69376822 -126.27685547 26.6862793 C-116.69943783 26.67903442 -107.12275556 26.71249028 -97.54549742 26.76533669 C-89.29626316 26.80919893 -81.0472659 26.82582642 -72.79791689 26.8213008 C-67.88239101 26.81898629 -62.96746046 26.82714743 -58.05204773 26.86237144 C-53.42884268 26.89447037 -48.80685267 26.89240671 -44.18362999 26.86492729 C-42.49546302 26.86049573 -40.80721418 26.86780762 -39.11916542 26.88827133 C-27.42658211 27.02032497 -18.65207629 25.20978532 -9.77823639 16.92595959 C-5.1011271 12.02469663 -2.12939608 6.38818824 0 0 Z " fill="#495C84" transform="translate(231,206)"/>
<path d="M0 0 C0.33 0 0.66 0 1 0 C1 29.37 1 58.74 1 89 C0.67 89 0.34 89 0 89 C-0.33 61.94 -0.66 34.88 -1 7 C-4.77874962 10.77874962 -6.52425461 12.80713308 -8.89453125 17.21875 C-10.82636289 20.33152465 -13.27065405 22.56732209 -16 25 C-16.66 25 -17.32 25 -18 25 C-18 25.66 -18 26.32 -18 27 C-18.66 26.67 -19.32 26.34 -20 26 C-15.37150297 19.45203803 -10.55703707 13.08406637 -5.5625 6.8125 C-5.03043945 6.14081787 -4.49837891 5.46913574 -3.95019531 4.77709961 C-2.65798798 3.16476777 -1.33219604 1.57945163 0 0 Z " fill="#129EF1" transform="translate(181,102)"/>
<path d="M0 0 C-1.70233601 4.12411165 -4.60110288 7.24359093 -7.5 10.5625 C-8.02956299 11.17585205 -8.55912598 11.7892041 -9.10473633 12.42114258 C-13.34477308 17.31008048 -17.70418083 22.0776533 -22.13671875 26.79296875 C-24.18776233 28.9460234 -24.18776233 28.9460234 -25 32 C-25.99 32 -26.98 32 -28 32 C-28.14518182 27.9170404 -28.23403347 23.83474359 -28.3125 19.75 C-28.35439453 18.59113281 -28.39628906 17.43226563 -28.43945312 16.23828125 C-28.56390832 7.62598195 -28.56390832 7.62598195 -25.48046875 4.203125 C-24.66191406 3.80609375 -23.84335937 3.4090625 -23 3 C-23.375 4.9375 -23.375 4.9375 -24 7 C-24.99 7.495 -24.99 7.495 -26 8 C-26 13.94 -26 19.88 -26 26 C-21.51410345 22.18698793 -17.64565717 18.62718025 -14 14 C-13.34 14 -12.68 14 -12 14 C-11.7525 13.27425781 -11.505 12.54851562 -11.25 11.80078125 C-9.87572546 8.72154736 -8.25344071 6.68533961 -6 4.1875 C-5.29875 3.39730469 -4.5975 2.60710937 -3.875 1.79296875 C-2 0 -2 0 0 0 Z " fill="#0985DD" transform="translate(35,164)"/>
<path d="M0 0 C-5.66507011 3.08900201 -10.50857435 5.57664615 -17 6 C-16.690625 6.721875 -16.38125 7.44375 -16.0625 8.1875 C-14.33824075 12.75171565 -13.65817192 14.8795635 -15.125 19.6875 C-17 23 -17 23 -19.6875 24.4375 C-20.450625 24.623125 -21.21375 24.80875 -22 25 C-21.01 23.02 -20.02 21.04 -19 19 C-18.34 19 -17.68 19 -17 19 C-17.25662245 17.55989519 -17.53090821 16.1229313 -17.8125 14.6875 C-18.03873047 13.48673828 -18.03873047 13.48673828 -18.26953125 12.26171875 C-19.08533345 9.73578574 -20.13876791 8.82043796 -22 7 C-22 6.01 -22 5.02 -22 4 C-18.71122636 3.13441614 -15.4186065 2.28449158 -12.125 1.4375 C-11.18785156 1.19064453 -10.25070313 0.94378906 -9.28515625 0.68945312 C-8.38925781 0.46064453 -7.49335938 0.23183594 -6.5703125 -0.00390625 C-5.74289551 -0.21861572 -4.91547852 -0.4333252 -4.06298828 -0.65454102 C-2 -1 -2 -1 0 0 Z " fill="#0E9CE1" transform="translate(190,39)"/>
<path d="M0 0 C0.33 0 0.66 0 1 0 C0.64207636 6.68124128 -1.11353322 10.6124727 -5 16 C-5.556875 16.86625 -6.11375 17.7325 -6.6875 18.625 C-10.97161082 23.0248976 -17.72060167 27.79543985 -24.04296875 28.09765625 C-24.75066406 28.08605469 -25.45835937 28.07445312 -26.1875 28.0625 C-28.0746875 28.0315625 -28.0746875 28.0315625 -30 28 C-30 27.67 -30 27.34 -30 27 C-28.88625 26.79375 -27.7725 26.5875 -26.625 26.375 C-17.53772478 24.05895109 -10.34911802 18.61111208 -5 11 C-2.9122304 7.44188047 -1.30380281 3.91140842 0 0 Z " fill="#E3E6EB" transform="translate(231,206)"/>
<path d="M0 0 C0.33 1.32 0.66 2.64 1 4 C0.34 4 -0.32 4 -1 4 C-1.0825 4.5775 -1.165 5.155 -1.25 5.75 C-2.21398944 8.64196832 -3.84721823 9.84721823 -6 12 C-6.9583254 13.72498572 -7.91602405 15.45037355 -8.859375 17.18359375 C-10.81793254 20.30252955 -13.25495787 22.55333202 -16 25 C-16.66 25 -17.32 25 -18 25 C-18 25.66 -18 26.32 -18 27 C-18.66 26.67 -19.32 26.34 -20 26 C-13.67384776 17.05035522 -6.89433958 8.51450938 0 0 Z " fill="#3DAFEA" transform="translate(181,102)"/>
<path d="M0 0 C6.20106582 0.38756661 9.97496149 2.44414648 15 6 C15.86625 6.556875 16.7325 7.11375 17.625 7.6875 C22.61332233 12.54455069 26.62752467 18.92296865 27 26 C25 25 25 25 23.75 21.375 C20.96794855 13.62401088 14.91194055 8.23966614 8 4 C5.35492034 2.79933244 2.77301539 1.89132637 0 1 C0 0.67 0 0.34 0 0 Z " fill="#E8EAED" transform="translate(205,1)"/>
<path d="M0 0 C0.33 0.99 0.66 1.98 1 3 C-0.3125 5.1875 -0.3125 5.1875 -2 7 C-2.66 7 -3.32 7 -4 7 C-4.09796875 7.58652344 -4.1959375 8.17304688 -4.296875 8.77734375 C-5.84918844 13.68437902 -10.74792677 17.10963681 -14.8125 20 C-15.534375 20.33 -16.25625 20.66 -17 21 C-17.66 20.67 -18.32 20.34 -19 20 C-16.49624053 17.49176154 -13.9882881 14.98845052 -11.46484375 12.5 C-10.63082031 11.675 -9.79679688 10.85 -8.9375 10 C-8.10089844 9.175 -7.26429688 8.35 -6.40234375 7.5 C-4.10048809 5.10457297 -2.03097557 2.62666586 0 0 Z " fill="#3A9DE6" transform="translate(139,155)"/>
<path d="M0 0 C0.99 0.33 1.98 0.66 3 1 C3.69040574 2.65697379 4.3530635 4.3255761 5 6 C9.22312551 11.91237571 13.44134786 14.3971912 20.25 16.6875 C20.8996875 16.91244141 21.549375 17.13738281 22.21875 17.36914062 C23.81030199 17.91916227 25.40486156 18.46046788 27 19 C27 19.33 27 19.66 27 20 C18.33567158 19.72050553 11.90838957 17.09990775 5.84765625 10.7421875 C3.05200554 7.27763876 0.81448922 4.44449673 0 0 Z " fill="#C6CBD5" transform="translate(3,214)"/>
<path d="M0 0 C0.66 0 1.32 0 2 0 C-0.01210885 4.26038071 -2.30554184 8.00196844 -6 11 C-10.0085691 11.44539657 -12.00044355 10.74307975 -15.22265625 8.34765625 C-17.21940609 6.62559157 -19.13108069 4.85921064 -21 3 C-17.40239524 3 -16.7784377 3.89512296 -14 6 C-11.85266073 6.70514846 -11.85266073 6.70514846 -10 7 C-10 7.66 -10 8.32 -10 9 C-9.21625 8.505 -8.4325 8.01 -7.625 7.5 C-5 6 -5 6 -3 6 C-2.87625 5.38125 -2.7525 4.7625 -2.625 4.125 C-2 2 -2 2 0 0 Z " fill="#0D8AE1" transform="translate(119,152)"/>
<path d="M0 0 C1.04929687 -0.01417969 2.09859375 -0.02835937 3.1796875 -0.04296875 C6.10101206 0.18562296 7.73794328 0.5165603 10.125 2.1875 C10.455 3.1775 10.785 4.1675 11.125 5.1875 C5.845 3.8675 0.565 2.5475 -4.875 1.1875 C-4.875 2.1775 -4.875 3.1675 -4.875 4.1875 C-7.79289766 6.29487053 -10.39802382 7.39997975 -13.875 8.1875 C-12.92078192 7.03823734 -11.96147955 5.89319459 -11 4.75 C-10.46632812 4.11191406 -9.93265625 3.47382812 -9.3828125 2.81640625 C-6.53217731 -0.26316596 -4.04304351 0.02471298 0 0 Z " fill="#486286" transform="translate(66.875,97.8125)"/>
<path d="M0 0 C1.32 0 2.64 0 4 0 C4 0.66 4 1.32 4 2 C5.0725 1.979375 6.145 1.95875 7.25 1.9375 C11 2 11 2 12.78125 2.46875 C15.92005339 3.22029447 19.03215895 3.35393623 22.25 3.5625 C23.51328125 3.64628906 24.7765625 3.73007813 26.078125 3.81640625 C27.04234375 3.87699219 28.0065625 3.93757812 29 4 C29 4.33 29 4.66 29 5 C25.47945086 5.11709643 21.95940888 5.1875469 18.4375 5.25 C17.44685547 5.28351563 16.45621094 5.31703125 15.43554688 5.3515625 C9.02285814 5.43678096 5.2526685 4.74243422 0 1 C0 0.67 0 0.34 0 0 Z " fill="#0C74DB" transform="translate(21,221)"/>
<path d="M0 0 C0.66 0.33 1.32 0.66 2 1 C-2.87281998 6.62248459 -7.58719175 9.55388943 -15.1328125 10.17578125 C-16.75623613 10.1856401 -18.37984354 10.10341424 -20 10 C-20 9.67 -20 9.34 -20 9 C-18.35 9 -16.7 9 -15 9 C-15 8.34 -15 7.68 -15 7 C-14.00419922 6.74476563 -14.00419922 6.74476563 -12.98828125 6.484375 C-7.83004654 5.06868431 -3.94122403 3.8098499 0 0 Z " fill="#0B75DB" transform="translate(175,216)"/>
<path d="M0 0 C0.33 0.66 0.66 1.32 1 2 C-0.9428261 6.74913047 -3.65005404 10.19735864 -7 14 C-8.32 13.67 -9.64 13.34 -11 13 C-7.37 8.71 -3.74 4.42 0 0 Z " fill="#254A79" transform="translate(52,106)"/>
<path d="M0 0 C0 4.79470293 -2.30005543 8.98703447 -5.37890625 12.6328125 C-6.54604972 13.79663077 -7.76808967 14.90496859 -9 16 C-9.99 15.67 -10.98 15.34 -12 15 C-10.18829771 12.68687105 -8.37567861 10.37447123 -6.5625 8.0625 C-6.04623047 7.40314453 -5.52996094 6.74378906 -4.99804688 6.06445312 C-4.50498047 5.43603516 -4.01191406 4.80761719 -3.50390625 4.16015625 C-3.04830322 3.57886963 -2.5927002 2.99758301 -2.12329102 2.39868164 C-1 1 -1 1 0 0 Z " fill="#289DEB" transform="translate(152,139)"/>
<path d="M0 0 C-0.37074504 2.59521528 -0.67493694 3.72403114 -2.70703125 5.44921875 C-3.74923828 6.06216797 -3.74923828 6.06216797 -4.8125 6.6875 C-5.49957031 7.10386719 -6.18664062 7.52023438 -6.89453125 7.94921875 C-8.93370953 8.96691626 -10.77439588 9.54487646 -13 10 C-11.54845769 6.37114422 -9.7599362 4.84567327 -6.5 2.75 C-5.30890625 1.96882812 -5.30890625 1.96882812 -4.09375 1.171875 C-2 0 -2 0 0 0 Z " fill="#5F7598" transform="translate(21,3)"/>
<path d="M0 0 C0.66 0 1.32 0 2 0 C1.4409112 3.24271506 0.5867822 4.93057424 -2 7 C-2.66 7 -3.32 7 -4 7 C-4.0825 7.5775 -4.165 8.155 -4.25 8.75 C-5.21797787 11.6539336 -6.68694284 13.03740604 -9 15 C-9.66 15 -10.32 15 -11 15 C-9.37278635 11.28570797 -7.05329514 8.38358949 -4.5 5.25 C-3.7059375 4.26515625 -2.911875 3.2803125 -2.09375 2.265625 C-1.4028125 1.51796875 -0.711875 0.7703125 0 0 Z " fill="#054990" transform="translate(56,139)"/>
<path d="M0 0 C0.33 0.99 0.66 1.98 1 3 C0.01 3.66 -0.98 4.32 -2 5 C-2.4324387 7.28900916 -2.4324387 7.28900916 -2.328125 9.9375 C-2.32296875 10.91460937 -2.3178125 11.89171875 -2.3125 12.8984375 C-2.291875 13.92195312 -2.27125 14.94546875 -2.25 16 C-2.24484375 17.02351563 -2.2396875 18.04703125 -2.234375 19.1015625 C-2.38888642 24.21595458 -2.38888642 24.21595458 -1 29 C-1.99 29 -2.98 29 -4 29 C-4.11614929 24.9169058 -4.18723457 20.83423623 -4.25 16.75 C-4.28351562 15.59113281 -4.31703125 14.43226563 -4.3515625 13.23828125 C-4.36445312 12.12324219 -4.37734375 11.00820312 -4.390625 9.859375 C-4.41157227 8.83295898 -4.43251953 7.80654297 -4.45410156 6.74902344 C-3.88879153 3.32677023 -2.62690073 2.17241963 0 0 Z " fill="#0F6CB9" transform="translate(11,167)"/>
<path d="M0 0 C0.33 0 0.66 0 1 0 C1.10829314 2.89684158 1.18743954 5.78961019 1.25 8.6875 C1.28351563 9.50412109 1.31703125 10.32074219 1.3515625 11.16210938 C1.42031147 15.40735834 1.37134905 17.4321814 -1.015625 21.08203125 C-1.67046875 21.71496094 -2.3253125 22.34789062 -3 23 C-2.06024943 15.32537035 -1.0277503 7.66322553 0 0 Z " fill="#0D79DE" transform="translate(181,191)"/>
<path d="M0 0 C0.66 0 1.32 0 2 0 C2 10.89 2 21.78 2 33 C1.67 33 1.34 33 1 33 C0.85694335 28.78249212 0.71454463 24.56496269 0.57275391 20.34741211 C0.52443202 18.9128357 0.47593077 17.47826532 0.42724609 16.04370117 C0.35727469 13.98097266 0.28794962 11.91822328 0.21875 9.85546875 C0.17685547 8.61434326 0.13496094 7.37321777 0.09179688 6.09448242 C0.03155289 4.06365121 0 2.03172457 0 0 Z " fill="#12B9F7" transform="translate(197,37)"/>
<path d="M0 0 C0.33 0 0.66 0 1 0 C0.64455443 6.63498399 -1.13095043 10.63187218 -5 16 C-5.99 15.67 -6.98 15.34 -8 15 C-7.236875 14.01 -6.47375 13.02 -5.6875 12 C-2.94512678 8.19028265 -1.48008578 4.44025735 0 0 Z " fill="#D6DAE1" transform="translate(231,206)"/>
<path d="M0 0 C0.66 0.99 1.32 1.98 2 3 C-1.3 3 -4.6 3 -8 3 C-8.66 4.32 -9.32 5.64 -10 7 C-11.32 6.67 -12.64 6.34 -14 6 C-9.44786109 0.53743331 -7.16295536 -1.0744433 0 0 Z " fill="#0F9DE1" transform="translate(71,106)"/>
<path d="M0 0 C1 3 1 3 -0.07421875 5.2265625 C-0.87279297 6.41378906 -0.87279297 6.41378906 -1.6875 7.625 C-2.20699219 8.42164062 -2.72648438 9.21828125 -3.26171875 10.0390625 C-5.17418516 12.19649652 -6.18771639 12.64463519 -9 13 C-6.39163722 8.36291061 -3.22997426 4.21255542 0 0 Z " fill="#044A8D" transform="translate(171,88)"/>
<path d="M0 0 C0.66 0.66 1.32 1.32 2 2 C1.78809434 6.29516465 0.98735515 10.04168471 -2.125 13.0625 C-2.74375 13.371875 -3.3625 13.68125 -4 14 C-4.66 13.67 -5.32 13.34 -6 13 C-3.25 8.125 -3.25 8.125 -1 7 C-0.59270772 4.67843403 -0.25561323 2.3431213 0 0 Z " fill="#0AA3E3" transform="translate(174,50)"/>
<path d="M0 0 C1 2 1 2 0.25 4.4375 C-0.94131051 6.87968654 -1.88488303 8.3255324 -4 10 C-4.66 10 -5.32 10 -6 10 C-6 10.66 -6 11.32 -6 12 C-6.66 12 -7.32 12 -8 12 C-6.59023295 8.96147295 -4.91129772 6.4060405 -2.875 3.75 C-2.06675781 2.69039063 -2.06675781 2.69039063 -1.2421875 1.609375 C-0.83226563 1.07828125 -0.42234375 0.5471875 0 0 Z " fill="#0C88D6" transform="translate(126,118)"/>
<path d="M0 0 C-5.97332123 3.4753869 -10.11509775 4.57374185 -17 4 C-14.35103165 1.35103165 -12.13454484 1.13670541 -8.5 0.3125 C-6.75203125 -0.09548828 -6.75203125 -0.09548828 -4.96875 -0.51171875 C-2 -1 -2 -1 0 0 Z " fill="#108BCA" transform="translate(190,39)"/>
<path d="M0 0 C6.16456078 0.38528505 9.98627748 2.47086025 15 6 C14.67 6.99 14.34 7.98 14 9 C13.175 8.236875 12.35 7.47375 11.5 6.6875 C7.95583932 3.70294364 4.37889283 2.43446489 0 1 C0 0.67 0 0.34 0 0 Z " fill="#CCD2DA" transform="translate(205,1)"/>
<path d="M0 0 C0.99 0.33 1.98 0.66 3 1 C0.03 4.3 -2.94 7.6 -6 11 C-6.33 10.01 -6.66 9.02 -7 8 C-6.34 8 -5.68 8 -5 8 C-4.67 6.68 -4.34 5.36 -4 4 C-3.34 4 -2.68 4 -2 4 C-1.34 2.68 -0.68 1.36 0 0 Z " fill="#0A8DE2" transform="translate(42,153)"/>
<path d="M0 0 C0.66 0 1.32 0 2 0 C0.50923566 3.2826932 -1.38620321 5.93077441 -3.625 8.75 C-4.57246094 9.94882813 -4.57246094 9.94882813 -5.5390625 11.171875 C-6.02117187 11.77515625 -6.50328125 12.3784375 -7 13 C-7.33 12.01 -7.66 11.02 -8 10 C-6.6875 7.8125 -6.6875 7.8125 -5 6 C-4.34 6 -3.68 6 -3 6 C-3 5.01 -3 4.02 -3 3 C-2.34 3 -1.68 3 -1 3 C-0.67 2.01 -0.34 1.02 0 0 Z " fill="#0FA0E3" transform="translate(183,70)"/>
<path d="M0 0 C0.515625 0.268125 1.03125 0.53625 1.5625 0.8125 C4.66401415 2.32349407 7.82262806 3.65572726 11 5 C11 5.99 11 6.98 11 8 C12.32 8.33 13.64 8.66 15 9 C8.809359 8.87102831 6.00014359 6.75724871 1.50390625 2.59375 C0 1 0 1 0 0 Z " fill="#0C7BCD" transform="translate(98,154)"/>
<path d="M0 0 C-3 2 -3 2 -6 2 C-7.02019573 2.9793879 -8.02149805 3.97895449 -9 5 C-9.66 5 -10.32 5 -11 5 C-11.33 5.99 -11.66 6.98 -12 8 C-12.66 7.34 -13.32 6.68 -14 6 C-9.36567158 0.43880589 -7.22299847 -0.74720674 0 0 Z " fill="#054C91" transform="translate(72,131)"/>
<path d="M0 0 C4.98862849 -0.29344873 7.96229058 -0.05887078 12 3 C12 3.33 12 3.66 12 4 C10.33388095 4.042721 8.66617115 4.04063832 7 4 C6.67 3.67 6.34 3.34 6 3 C3.67182036 2.63239269 1.3381615 2.29758419 -1 2 C-0.67 1.34 -0.34 0.68 0 0 Z " fill="#56B0EB" transform="translate(65,155)"/>
<path d="M0 0 C0.75 1.75 0.75 1.75 1 4 C-0.5 6.25 -0.5 6.25 -3 8 C-6.75 8.25 -6.75 8.25 -10 8 C-10.33 7.34 -10.66 6.68 -11 6 C-8.36 6 -5.72 6 -3 6 C-2.67 5.01 -2.34 4.02 -2 3 C-1.34 3 -0.68 3 0 3 C0 2.01 0 1.02 0 0 Z " fill="#415D81" transform="translate(205,71)"/>
<path d="M0 0 C0.66 0.33 1.32 0.66 2 1 C0.73046875 2.49739583 -0.5390625 3.99479167 -1.80859375 5.4921875 C-3.0878152 7.00594079 -3.0878152 7.00594079 -4 9 C-4.66 9 -5.32 9 -6 9 C-6.33 9.66 -6.66 10.32 -7 11 C-6.125 5.25 -6.125 5.25 -5 3 C-4.01 3 -3.02 3 -2 3 C-2 2.34 -2 1.68 -2 1 C-1.34 0.67 -0.68 0.34 0 0 Z " fill="#2F4F7B" transform="translate(8,16)"/>
<path d="M0 0 C0.66 0.33 1.32 0.66 2 1 C0.54782324 2.50596108 -0.91192861 4.00462104 -2.375 5.5 C-3.18710937 6.3353125 -3.99921875 7.170625 -4.8359375 8.03125 C-7 10 -7 10 -9 10 C-7.61811547 6.78956118 -6.07578097 4.95063635 -3.375 2.75 C-2.74335938 2.22921875 -2.11171875 1.7084375 -1.4609375 1.171875 C-0.73777344 0.59179688 -0.73777344 0.59179688 0 0 Z " fill="#CDD2DB" transform="translate(22,11)"/>
<path d="M0 0 C2.3431213 0.25561323 4.67843403 0.59270772 7 1 C7.33 1.66 7.66 2.32 8 3 C8.99 3.33 9.98 3.66 11 4 C11 4.66 11 5.32 11 6 C6.14922412 4.88059018 3.222107 3.8665284 0 0 Z " fill="#2E4B78" transform="translate(11,224)"/>
<path d="M0 0 C0.99 0 1.98 0 3 0 C1.55922954 3.36179774 -0.24750021 5.59156268 -3 8 C-3.66 8 -4.32 8 -5 8 C-3.63029745 5.04987143 -2.17390875 2.4347778 0 0 Z " fill="#2E4D7B" transform="translate(35,126)"/>
<path d="M0 0 C0 0.99 0 1.98 0 3 C-2.91789766 5.10737053 -5.52302382 6.21247975 -9 7 C-8.07347299 5.82460004 -7.13336613 4.65989423 -6.1875 3.5 C-5.66542969 2.8503125 -5.14335938 2.200625 -4.60546875 1.53125 C-3 0 -3 0 0 0 Z " fill="#2E4E78" transform="translate(62,99)"/>
<path d="M0 0 C1 2 1 2 0.4375 4.375 C-1.41741462 7.76223539 -3.71164126 9.06987639 -7 11 C-5.22054913 6.95579349 -2.60470327 3.53921513 0 0 Z " fill="#0D94D6" transform="translate(167,64)"/>
<path d="M0 0 C0.33 0.66 0.66 1.32 1 2 C-0.33135812 5.86093856 -3.0880704 8.24132985 -6 11 C-6.66 10.67 -7.32 10.34 -8 10 C-5.36 6.7 -2.72 3.4 0 0 Z " fill="#4794DF" transform="translate(25,202)"/>
<path d="M0 0 C3.63 0.66 7.26 1.32 11 2 C11 2.66 11 3.32 11 4 C3.57142857 4.28571429 3.57142857 4.28571429 0 2 C0 1.34 0 0.68 0 0 Z " fill="#3596E4" transform="translate(100,178)"/>
<path d="M0 0 C0.33 0.66 0.66 1.32 1 2 C-0.43257963 4.72872311 -1.81722366 6.81722366 -4 9 C-4.99 8.67 -5.98 8.34 -7 8 C-4.69 5.36 -2.38 2.72 0 0 Z " fill="#3FA0EA" transform="translate(54,167)"/>
<path d="M0 0 C1 2 1 2 0.3125 4.5625 C-1 7 -1 7 -3.125 7.8125 C-3.74375 7.874375 -4.3625 7.93625 -5 8 C-5 8.66 -5 9.32 -5 10 C-5.66 9.67 -6.32 9.34 -7 9 C-4.69 6.03 -2.38 3.06 0 0 Z " fill="#0D7FCE" transform="translate(29,145)"/>
<path d="M0 0 C0 3.7794561 -1.04679411 5.79116175 -3 9 C-5.1875 9.875 -5.1875 9.875 -7 10 C-5.33248852 6.05860922 -2.77289351 3.2107188 0 0 Z " fill="#42A9E9" transform="translate(152,139)"/>
<path d="M0 0 C1.0209375 0.6496875 1.0209375 0.6496875 2.0625 1.3125 C5.3046978 3.17503916 8.54486289 4.57729648 12 6 C12 6.33 12 6.66 12 7 C8.53058454 6.54177532 5.32604951 6.10868317 2 5 C2 4.01 2 3.02 2 2 C1.34 2 0.68 2 0 2 C0 1.34 0 0.68 0 0 Z " fill="#1190DC" transform="translate(99,130)"/>
<path d="M0 0 C0.66 0.33 1.32 0.66 2 1 C0.37660195 2.70884005 -1.29319053 4.37446717 -3 6 C-3.66 6 -4.32 6 -5 6 C-5 6.66 -5 7.32 -5 8 C-5.66 7.67 -6.32 7.34 -7 7 C-3.375 1.125 -3.375 1.125 0 0 Z " fill="#35ACEE" transform="translate(168,121)"/>
<path d="M0 0 C0.70125 0.144375 1.4025 0.28875 2.125 0.4375 C1.3825 1.015 0.64 1.5925 -0.125 2.1875 C-2.53587643 4.16003526 -4.71542701 6.19794282 -6.875 8.4375 C-7.535 8.1075 -8.195 7.7775 -8.875 7.4375 C-3.7809081 0.57535558 -3.7809081 0.57535558 0 0 Z " fill="#064D8D" transform="translate(190.875,66.5625)"/>
<path d="M0 0 C0.99 0.33 1.98 0.66 3 1 C3.73046875 3.06640625 3.73046875 3.06640625 4.1875 5.5625 C4.34605469 6.38878906 4.50460938 7.21507812 4.66796875 8.06640625 C4.77753906 8.70449219 4.88710937 9.34257812 5 10 C4.01 9.67 3.02 9.34 2 9 C1.26953125 6.93359375 1.26953125 6.93359375 0.8125 4.4375 C0.65394531 3.61121094 0.49539062 2.78492188 0.33203125 1.93359375 C0.16767578 0.97646484 0.16767578 0.97646484 0 0 Z " fill="#143A6A" transform="translate(1,205)"/>
<path d="M0 0 C0.6875 1.8125 0.6875 1.8125 1 4 C-0.4375 5.75 -0.4375 5.75 -2 7 C-2.99 6.67 -3.98 6.34 -5 6 C-3.35 4.02 -1.7 2.04 0 0 Z " fill="#3490E5" transform="translate(31,195)"/>
<path d="M0 0 C0.6875 1.6875 0.6875 1.6875 1 4 C-0.4375 6.75 -0.4375 6.75 -2 9 C-2.6875 7.3125 -2.6875 7.3125 -3 5 C-1.5625 2.25 -1.5625 2.25 0 0 Z " fill="#415B81" transform="translate(188,209)"/>
<path d="M0 0 C1 3 1 3 0.3125 5.125 C-1 7 -1 7 -3.125 7.75 C-4.053125 7.87375 -4.053125 7.87375 -5 8 C-3.62845496 5.04590299 -2.01136276 2.55991624 0 0 Z " fill="#449BE4" transform="translate(46,176)"/>
<path d="M0 0 C2.64 1.98 5.28 3.96 8 6 C7.01 6.33 6.02 6.66 5 7 C3.29115995 5.37660195 1.62553283 3.70680947 0 2 C0 1.34 0 0.68 0 0 Z " fill="#2B99E8" transform="translate(78,161)"/>
<path d="M0 0 C0.33 0.99 0.66 1.98 1 3 C0.01 3.33 -0.98 3.66 -2 4 C-2.73323796 6.01508358 -2.73323796 6.01508358 -3 8 C-3.99 7.67 -4.98 7.34 -6 7 C-4.02 4.69 -2.04 2.38 0 0 Z " fill="#3E587E" transform="translate(27,136)"/>
<path d="M0 0 C0.99 0 1.98 0 3 0 C2.25 1.9375 2.25 1.9375 1 4 C-1.125 4.75 -1.125 4.75 -3 5 C-1.125 1.125 -1.125 1.125 0 0 Z " fill="#7688A1" transform="translate(11,8)"/>
<path d="M0 0 C0.33 0.66 0.66 1.32 1 2 C-0.13304992 5.39914975 -1.12518475 6.05254451 -4 8 C-4.66 7.67 -5.32 7.34 -6 7 C-4.02 4.69 -2.04 2.38 0 0 Z " fill="#02458D" transform="translate(38,161)"/>
<path d="M0 0 C0 3.59857954 -0.95830515 5.09451118 -3 8 C-3.66 8 -4.32 8 -5 8 C-3.8141763 4.62496331 -2.72426311 2.35277269 0 0 Z " fill="#055394" transform="translate(158,105)"/>
<path d="M0 0 C0.33 0.66 0.66 1.32 1 2 C0.3125 4.0625 0.3125 4.0625 -1 6 C-3.125 6.75 -3.125 6.75 -5 7 C-3.47793991 4.37098712 -2.15634036 2.15634036 0 0 Z " fill="#415A80" transform="translate(52,106)"/>
</svg>
